<svg width="254" height="241" viewBox="0 0 254 241" fill="none" xmlns="http://www.w3.org/2000/svg">
<path d="M0 205.056C0 224.908 14.964 241.014 33.4132 241L220.587 240.958C239.036 240.958 254 224.866 254 205V97L0 97.0419V205.042L0 205.056Z" fill="#EFEFEF"/>
<path d="M220.587 36L33.4132 36.029C14.964 36.029 0 47.1506 0 60.8812V97L254 96.971V60.8522C254 47.1313 239.036 36 220.587 36.0097V36Z" fill="#F76D5D"/>
<path d="M67.4992 73.151H65.9315C59.1815 73.151 53.7012 67.7031 53.7012 60.9742V12.2022C53.7012 5.47325 59.1815 0.0253906 65.9315 0.0253906H67.4992C74.2492 0.0253906 79.7295 5.47325 79.7295 12.2022V60.9742C79.7295 67.7031 74.2492 73.151 67.4992 73.151Z" fill="#0A0A0A"/>
<path d="M188.068 73.1385H186.5C179.75 73.1385 174.27 67.6907 174.27 60.9617V12.1768C174.27 5.44786 179.75 0 186.5 0H188.068C194.818 0 200.298 5.44786 200.298 12.1768V60.9488C200.298 67.6777 194.818 73.1256 188.068 73.1256V73.1385Z" fill="#0A0A0A"/>
<path d="M49.0774 183.773V174.085L73.3672 135.818H81.7195V149.227H76.7763L61.4638 173.46V173.915H95.9808V183.773H49.0774ZM77.0036 194V180.818L77.2308 176.528V135.818H88.7649V194H77.0036ZM126.989 195.278C122.103 195.259 117.898 194.057 114.376 191.67C110.872 189.284 108.173 185.828 106.279 181.301C104.404 176.775 103.476 171.33 103.495 164.966C103.495 158.621 104.433 153.214 106.308 148.744C108.201 144.275 110.9 140.875 114.404 138.545C117.927 136.197 122.122 135.023 126.989 135.023C131.857 135.023 136.042 136.197 139.546 138.545C143.069 140.894 145.777 144.303 147.671 148.773C149.565 153.223 150.503 158.621 150.484 164.966C150.484 171.348 149.537 176.803 147.643 181.33C145.768 185.856 143.078 189.312 139.575 191.699C136.071 194.085 131.876 195.278 126.989 195.278ZM126.989 185.08C130.323 185.08 132.984 183.403 134.972 180.051C136.961 176.699 137.946 171.67 137.927 164.966C137.927 160.553 137.472 156.879 136.563 153.943C135.673 151.008 134.404 148.801 132.756 147.324C131.128 145.847 129.205 145.108 126.989 145.108C123.675 145.108 121.023 146.765 119.035 150.08C117.046 153.394 116.042 158.356 116.023 164.966C116.023 169.436 116.469 173.167 117.359 176.159C118.268 179.133 119.546 181.367 121.194 182.864C122.842 184.341 124.773 185.08 126.989 185.08ZM158.374 183.773V174.085L182.664 135.818H191.016V149.227H186.073L170.761 173.46V173.915H205.278V183.773H158.374ZM186.3 194V180.818L186.528 176.528V135.818H198.062V194H186.3Z" fill="black"/>
</svg>
