<svg width="254" height="241" viewBox="0 0 254 241" fill="none" xmlns="http://www.w3.org/2000/svg">
<path d="M0 205.056C0 224.909 14.964 241.014 33.4132 241L220.587 240.958C239.036 240.958 254 224.867 254 205V97.0004L0 97.0423V205.042L0 205.056Z" fill="#EFEFEF"/>
<path d="M220.587 36.0004L33.4132 36.0294C14.964 36.0294 0 47.151 0 60.8816V97.0004L254 96.9714V60.8526C254 47.1317 239.036 36.0004 220.587 36.0101V36.0004Z" fill="#F76D5D"/>
<path d="M67.4992 73.1514H65.9315C59.1815 73.1514 53.7012 67.7035 53.7012 60.9746V12.2026C53.7012 5.47365 59.1815 0.0257874 65.9315 0.0257874H67.4992C74.2492 0.0257874 79.7295 5.47365 79.7295 12.2026V60.9746C79.7295 67.7035 74.2492 73.1514 67.4992 73.1514Z" fill="#0A0A0A"/>
<path d="M188.068 73.1385H186.5C179.75 73.1385 174.27 67.6907 174.27 60.9617V12.1768C174.27 5.44786 179.75 0 186.5 0H188.068C194.818 0 200.298 5.44786 200.298 12.1768V60.9488C200.298 67.6777 194.818 73.1256 188.068 73.1256V73.1385Z" fill="#0A0A0A"/>
<path d="M128.001 206.5C125.342 206.5 123.067 205.553 121.174 203.66C119.281 201.767 118.334 199.492 118.334 196.833C118.334 194.175 119.281 191.899 121.174 190.006C123.067 188.113 125.342 187.167 128.001 187.167C130.659 187.167 132.935 188.113 134.828 190.006C136.721 191.899 137.667 194.175 137.667 196.833C137.667 199.492 136.721 201.767 134.828 203.66C132.935 205.553 130.659 206.5 128.001 206.5ZM128.001 177.5C125.342 177.5 123.067 176.553 121.174 174.66C119.281 172.767 118.334 170.492 118.334 167.833V129.167C118.334 126.508 119.281 124.233 121.174 122.34C123.067 120.447 125.342 119.5 128.001 119.5C130.659 119.5 132.935 120.447 134.828 122.34C136.721 124.233 137.667 126.508 137.667 129.167V167.833C137.667 170.492 136.721 172.767 134.828 174.66C132.935 176.553 130.659 177.5 128.001 177.5Z" fill="black"/>
</svg>
