<svg width="83" height="90" viewBox="0 0 83 90" fill="none" xmlns="http://www.w3.org/2000/svg">
<path d="M41.2814 50.3799L50.9014 58.1899L54.1414 62.7799L57.4314 69.3199V78.1899L49.3614 82.0699H33.4014H24.1914V69.3199L32.0114 58.1899L41.2814 50.3799Z" fill="#F58E5F"/>
<path d="M34.5314 7.12024L12.7814 26.7002L5.19141 55.1302L12.7814 73.3402L24.1914 82.0702L28.4214 61.2302L36.6414 54.2802L45.1314 55.1302L50.9014 58.1902L54.1414 62.7802L57.4314 69.3202L60.9214 80.4302L67.2314 74.6802L77.4314 62.7802L74.8814 31.3402L67.3814 23.2702L59.5914 33.7602L44.2814 28.7902L38.4514 17.6702L40.0314 4.99023L34.5314 7.12024Z" fill="#F76D5D"/>
<path d="M9.49002 52.04C9.49002 56.14 10.31 60.03 11.97 63.69C13.63 67.36 15.99 70.57 19.07 73.33C18.99 72.94 18.95 72.58 18.95 72.27V71.21C18.95 68.69 19.43 66.32 20.37 64.11C21.31 61.9 22.7 59.89 24.51 58.08L41.28 44.95L58.05 58.08C59.86 59.89 61.25 61.9 62.19 64.11C63.13 66.32 63.61 68.68 63.61 71.21V72.27C63.61 72.58 63.57 72.94 63.49 73.33C66.57 70.57 68.93 67.36 70.59 63.68C72.25 60.01 73.07 56.12 73.07 52.03C73.07 47.94 72.34 44.36 70.88 40.85C69.42 37.34 67.31 34.2 64.55 31.44C62.97 32.47 61.32 33.23 59.58 33.74C57.84 34.25 56.07 34.51 54.26 34.51C49.37 34.51 41.6 32.63 38.33 29.07C35.33 25.81 34.18 22.42 32.88 15.06C29.8 17.66 24.4 21.34 20.37 25.82C17.92 28.54 16.01 31.46 14.4 34.34C12.79 37.21 11.56 40.15 10.73 43.15C9.90001 46.15 9.49002 49.11 9.49002 52.02H9.52002L9.49002 52.04ZM41.28 58.19L31.14 64.82C30.27 65.69 29.6 66.67 29.13 67.78C28.65 68.88 28.42 70.02 28.42 71.21C28.42 73.73 29.35 75.9 31.2 77.72C33.05 79.53 38.68 80.44 41.29 80.44C43.9 80.44 49.52 79.53 51.38 77.72C53.24 75.91 54.16 73.73 54.16 71.21C54.16 69.95 53.92 68.79 53.45 67.72C52.97 66.65 52.3 65.69 51.44 64.82L41.3 58.2L41.28 58.19ZM45.74 22.84C47.89 24.38 51.58 25.07 54.25 25.07C55.67 25.07 56.99 24.77 58.21 24.19C59.43 23.6 60.51 22.71 61.46 21.53L63.59 18.93C69.43 22.24 74.04 26.86 77.43 32.77C80.82 38.68 82.52 45.11 82.52 52.05C82.52 62.62 78.85 71.57 71.51 78.9C64.18 86.23 51.83 89.91 41.26 89.91C30.69 89.91 18.34 86.25 11.01 78.91C3.68001 71.58 0 62.63 0 52.06C0 41.49 3.41001 32.22 10.23 23.07C17.05 13.92 28.66 6.23 40.26 0C40.26 0 40.26 7.94 41.25 14.4C41.86 18.36 42.94 20.86 45.72 22.85L45.74 22.84Z" fill="black"/>
</svg>
