<svg width="42" height="42" viewBox="0 0 42 42" fill="none" xmlns="http://www.w3.org/2000/svg">
<g clip-path="url(#clip0_1548_1825)">
<path fill-rule="evenodd" clip-rule="evenodd" d="M21 0C32.5983 0 42 9.63885 42 21.5312C42 31.0421 35.9898 39.1103 27.6507 41.96C26.586 42.1721 26.208 41.4997 26.208 40.9264C26.208 40.2166 26.2332 37.8983 26.2332 35.0171C26.2332 33.0095 25.5612 31.6992 24.8073 31.0314C29.484 30.498 34.398 28.6771 34.398 20.4073C34.398 18.0553 33.5832 16.136 32.235 14.6282C32.4534 14.0843 33.1737 11.8943 32.0292 8.9291C32.0292 8.9291 30.2694 8.35217 26.2605 11.1368C24.5826 10.6601 22.785 10.4202 21 10.4118C19.215 10.4202 17.4195 10.6601 15.7437 11.1368C11.7306 8.35217 9.9666 8.9291 9.9666 8.9291C8.8263 11.8943 9.5466 14.0843 9.7629 14.6282C8.421 16.136 7.59991 18.0553 7.59991 20.4073C7.59991 28.6561 12.5034 30.5049 17.1675 31.0488C16.5669 31.5864 16.023 32.5348 15.834 33.9271C14.637 34.4773 11.5962 35.4295 9.72299 32.1388C9.72299 32.1388 8.6121 30.07 6.5037 29.9188C6.5037 29.9188 4.4562 29.8916 6.3609 31.2272C6.3609 31.2272 7.7364 31.8887 8.6919 34.3772C8.6919 34.3772 9.92461 38.2202 15.7668 36.9182C15.7773 38.7179 15.7962 40.414 15.7962 40.9264C15.7962 41.4955 15.4098 42.1616 14.3619 41.9621C6.01649 39.1166 0 31.0442 0 21.5312C0 9.63885 9.4038 0 21 0Z" fill="black"/>
</g>
<defs>
<clipPath id="clip0_1548_1825">
<rect width="42" height="42" fill="white"/>
</clipPath>
</defs>
</svg>
