<svg width="42" height="42" viewBox="0 0 42 42" fill="none" xmlns="http://www.w3.org/2000/svg">
<g clip-path="url(#clip0_1548_1823)">
<path d="M7.80297 7.36454C9.10847 8.42504 9.59847 8.34454 12.052 8.18004L35.1782 6.79229C35.6682 6.79229 35.2605 6.30229 35.0977 6.22179L31.2547 3.44454C30.5197 2.87404 29.538 2.21954 27.6585 2.38229L5.26722 4.01679C4.45172 4.09729 4.28722 4.50679 4.61272 4.83229L7.80297 7.36454ZM9.19072 12.7545V37.0865C9.19072 38.3938 9.84347 38.8838 11.3152 38.8015L36.7305 37.3315C38.2022 37.251 38.3667 36.3515 38.3667 35.2893V11.12C38.3667 10.0595 37.959 9.48729 37.0577 9.56779L10.498 11.12C9.51797 11.2023 9.19072 11.694 9.19072 12.7545ZM34.2805 14.0583C34.4432 14.7933 34.2805 15.5283 33.5455 15.6123L32.3205 15.8573V33.8193C31.2565 34.3915 30.2765 34.7188 29.4592 34.7188C28.1502 34.7188 27.823 34.3093 26.843 33.086L18.8332 20.5105V32.6765L21.3672 33.2505C21.3672 33.2505 21.3672 34.7205 19.3232 34.7205L13.6847 35.046C13.522 34.7205 13.6847 33.9033 14.257 33.7405L15.727 33.3328V17.245L13.6882 17.0805C13.5237 16.3455 13.9332 15.285 15.076 15.2028L21.124 14.795L29.461 27.5333V16.2633L27.3347 16.02C27.172 15.1205 27.8247 14.4678 28.642 14.3873L34.2805 14.0583ZM3.38772 1.81179L26.6802 0.0967925C29.5397 -0.148208 30.2765 0.0145425 32.0737 1.32179L39.5095 6.54729C40.7345 7.44504 41.144 7.69004 41.144 8.67004V37.3315C41.144 39.127 40.4912 40.191 38.204 40.352L11.1525 41.9865C9.43747 42.0688 8.61847 41.8238 7.71897 40.6793L2.24322 33.5743C1.26322 32.267 0.855469 31.2888 0.855469 30.1443V4.66779C0.855469 3.19954 1.50997 1.97279 3.38772 1.81179Z" fill="black"/>
</g>
<defs>
<clipPath id="clip0_1548_1823">
<rect width="42" height="42" fill="white"/>
</clipPath>
</defs>
</svg>
