<svg width="65" height="54" viewBox="0 0 65 54" fill="none" xmlns="http://www.w3.org/2000/svg">
<path d="M0.90625 50.3989C0.90625 52.3881 2.40278 54 4.24934 54L61.2169 53.9966C63.0635 53.9966 64.56 52.3839 64.56 50.3946V12.3408L0.90625 12.3451L0.90625 50.3989Z" fill="#EFEFEF"/>
<path d="M61.2169 4.78125L4.24934 4.78467C2.40278 4.78467 0.90625 6.39742 0.90625 8.38668V13.6211L64.56 13.6168V8.38241C64.56 6.39315 63.0635 4.78125 61.2169 4.78125Z" fill="#F76D5D"/>
<path d="M16.8726 9.53931H16.7153C16.0398 9.53931 15.4922 8.94936 15.4922 8.2211V1.32016C15.4922 0.591901 16.0398 0.00195312 16.7153 0.00195312H16.8726C17.5481 0.00195312 18.0957 0.591901 18.0957 1.32016V8.2211C18.0957 8.94936 17.5481 9.53931 16.8726 9.53931Z" fill="#0A0A0A"/>
<path d="M48.7632 9.53735H48.6059C47.9304 9.53735 47.3828 8.94741 47.3828 8.21915V1.31821C47.3828 0.589948 47.9304 0 48.6059 0H48.7632C49.4388 0 49.9863 0.589948 49.9863 1.31821V8.21915C49.9863 8.94741 49.4388 9.53735 48.7632 9.53735Z" fill="#0A0A0A"/>
</svg>
