<svg width="303" height="44" viewBox="0 0 303 44" fill="none" xmlns="http://www.w3.org/2000/svg">
<path d="M41.3404 4.91895H7.89022C3.66184 4.91895 0.234375 8.36252 0.234375 12.6108C0.234375 16.859 3.66184 20.3026 7.89022 20.3026H41.3404C45.5688 20.3026 48.9962 16.859 48.9962 12.6108C48.9962 8.36252 45.5688 4.91895 41.3404 4.91895ZM39.6914 15.0958H9.53917C8.1729 15.0958 7.06575 13.9835 7.06575 12.6108C7.06575 11.2381 8.1729 10.1257 9.53917 10.1257H39.6914C41.0577 10.1257 42.1649 11.2381 42.1649 12.6108C42.1649 13.9835 41.0577 15.0958 39.6914 15.0958Z" fill="black"/>
<path d="M48.9974 21.96H0V27.4034H48.9974V21.96Z" fill="black"/>
<path d="M82.6832 8.70703H52.5898V13.9138H82.6832V8.70703Z" fill="black"/>
<path d="M144.829 5.62891H103.559V11.309H144.829V5.62891Z" fill="black"/>
<path d="M146.05 26.6934H103.559V32.3735H146.05V26.6934Z" fill="black"/>
<path d="M148.173 37.8164H101.59V43.0232H148.173V37.8164Z" fill="black"/>
<path d="M85.5078 5.15686V43.7344H90.9258V5.15686H85.5078Z" fill="black"/>
<path d="M93.5195 5.15686V43.7344H98.9375V5.15686H93.5195Z" fill="black"/>
<path d="M20.8477 18.6469V23.7354H27.3257V18.6469H20.8477Z" fill="black"/>
<path d="M64.1562 4.44671V9.53516H70.6343V4.44671H64.1562Z" fill="black"/>
<path d="M120.934 32.1381V37.9365H127.412V32.1381H120.934Z" fill="black"/>
<path d="M103.559 7.75921V27.6396H110.037V7.75921H103.559Z" fill="black"/>
<path d="M95.1662 17.7002H90.1016V24.2087H95.1662V17.7002Z" fill="black"/>
<path d="M48.9974 29.2979H0V34.7413H48.9974V29.2979Z" fill="black"/>
<path d="M48.9974 38.291H0V43.7345H48.9974V38.291Z" fill="black"/>
<path d="M48.9974 34.7399L0 42.7868V38.29L48.9974 30.2432V34.7399Z" fill="black"/>
<path d="M69.2929 15.333H66.1646C58.2473 15.333 51.8281 21.1078 51.8281 29.3984C51.8281 37.689 58.2473 42.9905 66.1646 42.9905H69.2929C77.2102 42.9905 83.6293 37.689 83.6293 29.3984C83.6293 21.1078 77.2102 15.333 69.2929 15.333ZM77.5047 29.3984C77.5047 34.5744 73.4977 37.353 68.5532 37.353H66.4331C61.4886 37.353 57.4817 34.5768 57.4817 29.3984C57.4817 24.2224 61.4886 20.9705 66.4331 20.9705H68.5532C73.4977 20.9705 77.5047 24.22 77.5047 29.3961V29.3984Z" fill="black"/>
<path d="M248.113 35.9746H203.355V41.1814H248.113V35.9746Z" fill="black"/>
<path d="M203.59 6.3916V11.5984H231.785L221.896 17.1602L216.635 20.1186L203.59 27.4554V33.3722L221.896 23.077L241.045 33.8455V27.9287L227.156 20.1186L241.045 12.3084V11.5984V6.3916H203.59Z" fill="black"/>
<path d="M220.312 30.5316V37.04H226.967V30.5316H220.312Z" fill="black"/>
<path d="M193.691 5.44344V42.3643H199.109V5.44344H193.691Z" fill="black"/>
<path d="M203.354 16.5674H198.289V23.0759H203.354V16.5674Z" fill="black"/>
<path d="M242.93 5.44344V42.3643H248.348V5.44344H242.93Z" fill="black"/>
<path d="M252.584 16.5674H247.52V23.0759H252.584V16.5674Z" fill="black"/>
<path d="M298.519 35.9746H253.762V41.1814H298.519V35.9746Z" fill="black"/>
<path d="M253.996 6.3916V11.5984H282.191L272.302 17.1602L267.042 20.1186L253.996 27.4554V33.3722L272.302 23.077L291.451 33.8455V27.9287L277.562 20.1186L291.451 12.3084V11.5984V6.3916H253.996Z" fill="black"/>
<path d="M270.727 30.5316V37.04H277.381V30.5316H270.727Z" fill="black"/>
<path d="M293.34 5.44344V42.3643H298.758V5.44344H293.34Z" fill="black"/>
<path d="M302.998 16.5674H297.934V23.0759H302.998V16.5674Z" fill="black"/>
<path d="M172.022 24.0088L176.58 27.7293L178.119 29.9161L179.678 33.0283V37.2553L175.85 39.1061H168.284H163.914V33.0283L167.627 27.7293L172.022 24.0088Z" fill="#F58E5F"/>
<path d="M168.82 3.39731L158.51 12.7246L154.91 26.2716L158.51 34.9433L163.916 39.1064L165.923 29.1756L169.819 25.8669L173.85 26.2716L176.582 27.7295L178.12 29.9164L179.68 33.0286L181.336 38.3253L184.327 35.5847L189.161 29.9164L187.953 14.9351L184.398 11.0939L180.704 16.09L173.447 13.7209L170.681 8.42659L171.433 2.38672L168.82 3.39731Z" fill="#F76D5D"/>
<path d="M156.951 24.7985C156.951 26.7534 157.342 28.6042 158.126 30.3484C158.913 32.0974 160.032 33.6287 161.49 34.9399C161.455 34.7529 161.434 34.5825 161.434 34.4334V33.9269C161.434 32.7246 161.66 31.5981 162.107 30.5472C162.555 29.494 163.212 28.5355 164.07 27.6717L172.02 21.4164L179.97 27.6717C180.828 28.5332 181.485 29.494 181.932 30.5472C182.38 31.6004 182.606 32.7246 182.606 33.9269V34.4334C182.606 34.5825 182.585 34.7529 182.55 34.9399C184.008 33.624 185.129 32.0927 185.913 30.3437C186.7 28.5947 187.089 26.7439 187.089 24.7937C187.089 22.8436 186.743 21.1372 186.05 19.471C185.358 17.8001 184.359 16.3043 183.049 14.9884C182.3 15.4783 181.518 15.8428 180.691 16.0866C179.864 16.3304 179.028 16.4558 178.168 16.4558C175.85 16.4558 172.166 15.5588 170.616 13.8642C169.193 12.3093 168.647 10.6976 168.032 7.18772C166.574 8.42552 164.011 10.1793 162.098 12.314C160.937 13.611 160.03 15.0026 159.264 16.3706C158.498 17.7386 157.919 19.1397 157.523 20.5691C157.127 21.9986 156.934 23.4068 156.934 24.7961L156.946 24.8008L156.951 24.7985ZM172.025 27.7285L167.217 30.8857C166.807 31.2975 166.486 31.7685 166.263 32.2939C166.037 32.8193 165.923 33.3636 165.923 33.9293C165.923 35.1316 166.362 36.1635 167.24 37.0297C168.119 37.8912 170.786 38.3243 172.022 38.3243C173.259 38.3243 175.923 37.8912 176.804 37.0297C177.688 36.1682 178.121 35.1316 178.121 33.9293C178.121 33.3305 178.008 32.7743 177.782 32.2655C177.556 31.7543 177.238 31.2975 176.828 30.8857L172.02 27.7308V27.7261L172.025 27.7285ZM174.142 10.8869C175.162 11.6182 176.91 11.9472 178.178 11.9472C178.851 11.9472 179.475 11.8052 180.055 11.5259C180.634 11.2419 181.148 10.8206 181.598 10.2597L182.608 9.02193C185.376 10.6005 187.565 12.7992 189.174 15.618C190.783 18.4367 191.588 21.4969 191.588 24.8032C191.588 29.8396 189.847 34.102 186.37 37.5977C182.894 41.091 177.037 42.84 172.025 42.84C167.012 42.84 161.156 41.0957 157.679 37.6001C154.202 34.1068 152.461 29.8419 152.461 24.8056C152.461 19.7692 154.077 15.3553 157.314 10.9958C160.55 6.63628 166.053 2.9726 171.551 0.00473084L171.556 0C171.556 0 171.553 3.78675 172.025 6.86348C172.314 8.74976 172.823 9.93785 174.145 10.8869H174.142Z" fill="black"/>
</svg>
