<svg width="508" height="386" viewBox="0 0 508 386" fill="none" xmlns="http://www.w3.org/2000/svg">
<g clip-path="url(#clip0_186_727)">
<path d="M0 359.34C0 373.52 11.5 385.02 25.68 385.02L481.83 384.99C496.01 384.99 507.51 373.49 507.51 359.31V87.9902L0 88.0202V359.34Z" fill="#EFEFEF"/>
<path d="M481.83 32.9902L25.68 33.0202C11.5 33.0202 0 44.5202 0 58.7002V96.0202L507.51 95.9902V58.6702C507.51 44.4902 496.01 32.9902 481.83 32.9902Z" fill="#F76D5D"/>
<path d="M105.22 287.42L116.53 296.61L120.35 302.01L124.22 309.7V320.14L114.72 324.71H95.9396H85.0996V309.7L94.3096 296.61L105.22 287.42Z" fill="#F58E5F"/>
<path d="M97.27 236.51L71.68 259.55L62.75 293.01L71.68 314.43L85.1 324.71L90.08 300.18L99.75 292.01L109.75 293.01L116.53 296.61L120.35 302.01L124.22 309.7L128.33 322.78L135.75 316.01L147.75 302.01L144.75 265.01L135.93 255.52L126.76 267.86L108.75 262.01L101.89 248.93L103.75 234.01L97.27 236.51Z" fill="#F76D5D"/>
<path d="M70.6992 172.6H121.269V170.48C80.5892 169.92 70.9792 164.55 70.9792 155.23C70.9792 145.91 81.4292 140.12 128.329 140.11C174.939 140.11 185.679 145.47 185.679 155.22C185.679 164.97 175.789 169.91 135.389 170.48V172.6H185.959V184.89H70.6992V172.61V172.6ZM71.6892 201.27C109.259 201.27 163.639 199.57 170.849 198.3V196.89L73.3892 198.17V187.86H184.979V205.79C180.039 207.06 101.079 211.02 85.8192 210.46V211.87H187.659V221.61H71.6892V201.28V201.27ZM128.329 157.76C168.449 157.76 171.549 156.2 171.549 155.21C171.549 154.36 168.439 152.81 128.329 152.81C88.2092 152.81 85.1092 154.37 85.1092 155.21C85.1092 156.2 88.2192 157.75 128.329 157.75V157.76Z" fill="#0A0A0A"/>
<path d="M233.129 164.401C261.799 164.401 270.989 177.531 270.989 192.511C270.989 207.491 261.809 220.481 233.129 220.481C204.319 220.481 194.709 207.491 194.709 192.511C194.709 177.531 204.309 164.401 233.129 164.401ZM196.969 147.451H225.789V140.391H239.769V147.451H268.729V160.871H196.969V147.461V147.451ZM256.859 192.511C256.859 182.481 253.329 177.681 233.129 177.681C212.929 177.681 208.839 182.631 208.839 192.511C208.839 202.391 212.649 207.201 233.129 207.201C253.609 207.201 256.859 202.401 256.859 192.511ZM276.919 141.381H291.039V149.291H296.269V141.381H310.389V221.471H296.269V162.851H291.039V221.471H276.919V141.381Z" fill="#0A0A0A"/>
<path d="M317.459 205.081H368.309V195.751H320.279V142.931H425.789V156.481H334.399V182.191H428.899V195.741H382.429V205.071H432.719V218.631H317.459V205.081Z" fill="#0A0A0A"/>
<path d="M158.58 247.381H172.7V250.201H187.53V263.621H172.7V327.471H158.58V247.381Z" fill="#0A0A0A"/>
<path d="M194.6 248.93H280.76V261.92H244.74V269.55C248.98 275.62 260.42 283.53 283.58 289.75L280.19 302.46C259.14 296.67 245.44 288.9 237.96 281.56C230.47 290.04 216.77 298.79 195.16 304.73L191.77 292.02C215.08 285.66 226.38 276.9 230.61 269.7V261.93H194.59V248.94L194.6 248.93ZM191.92 313.91H230.62V293.71H244.74V313.91H290.22V247.24H304.35V250.21H319.18V263.63H304.35V327.48H191.91V313.93L191.92 313.91Z" fill="#0A0A0A"/>
<path d="M326.25 248.92H412.41V261.91H376.39V269.54C380.63 275.61 392.07 283.52 415.23 289.74L411.84 302.45C390.79 296.66 377.09 288.89 369.61 281.55C362.12 290.03 348.42 298.78 326.81 304.72L323.42 292.01C346.73 285.65 358.03 276.89 362.26 269.69V261.92H326.24V248.93L326.25 248.92ZM323.57 313.9H362.27V293.7H376.39V313.9H421.87V247.23H435.99V250.2H450.82V263.62H435.99V327.47H323.55V313.92L323.57 313.9Z" fill="#0A0A0A"/>
<path d="M67.8099 289.37C67.8099 294.2 68.7799 298.77 70.7299 303.08C72.6799 307.4 75.4599 311.18 79.0799 314.42C78.9899 313.96 78.9399 313.54 78.9399 313.17V311.92C78.9399 308.95 79.4999 306.17 80.6099 303.57C81.7199 300.97 83.3499 298.6 85.4799 296.47L105.21 281.02L124.94 296.47C127.07 298.6 128.7 300.97 129.81 303.57C130.92 306.17 131.48 308.95 131.48 311.92V313.17C131.48 313.54 131.43 313.96 131.34 314.42C134.96 311.17 137.74 307.39 139.69 303.07C141.64 298.75 142.61 294.18 142.61 289.36C142.61 284.54 141.75 280.33 140.03 276.21C138.31 272.08 135.83 268.39 132.58 265.14C130.72 266.35 128.78 267.25 126.73 267.85C124.68 268.45 122.6 268.76 120.47 268.76C114.72 268.76 106.07 266.03 101.73 262.36C96.9499 258.32 96.2599 254.54 94.7299 245.87C91.1099 248.93 83.3799 255.23 80.5899 258.53C77.8099 261.82 75.4599 265.17 73.5599 268.55C71.6599 271.93 70.2199 275.39 69.2399 278.92C68.2599 282.45 67.7799 285.93 67.7799 289.36L67.8099 289.37ZM105.22 296.61L93.2899 304.41C92.2699 305.43 91.4799 306.59 90.9199 307.89C90.3599 309.19 90.0799 310.53 90.0799 311.93C90.0799 314.9 91.1699 317.45 93.3499 319.59C95.5299 321.72 102.15 322.79 105.22 322.79C108.29 322.79 114.9 321.72 117.09 319.59C119.28 317.46 120.36 314.9 120.36 311.93C120.36 310.45 120.08 309.08 119.52 307.82C118.96 306.56 118.17 305.43 117.15 304.41L105.22 296.62V296.61ZM105.22 228.12V244.61C105.22 246.08 105.37 247.57 105.71 249.02C106.19 251.09 106.92 252.89 108.49 254.43C110.67 256.56 117.34 257.63 120.49 257.63C122.16 257.63 123.71 257.28 125.15 256.59C126.59 255.89 127.86 254.85 128.98 253.46L131.49 250.4C138.36 254.3 143.79 259.73 147.78 266.69C151.77 273.65 153.77 281.21 153.77 289.38C153.77 301.82 149.45 312.35 140.82 320.98C132.19 329.61 117.66 333.93 105.22 333.93C92.7799 333.93 78.2499 329.62 69.6199 320.99C60.9899 312.36 56.6699 301.83 56.6699 289.39C56.6699 276.95 60.6799 266.05 68.7099 255.28C76.7399 244.51 91.5699 235.46 105.21 228.13L105.22 228.12Z" fill="#0A0A0A"/>
<path d="M130.65 0.00976562H131.86C137.05 0.00976562 141.26 4.21977 141.26 9.40977V58.6198C141.26 63.8098 137.05 68.0198 131.86 68.0198H130.65C125.46 68.0198 121.25 63.8098 121.25 58.6198V9.40977C121.25 4.22977 125.46 0.00976562 130.65 0.00976562Z" fill="#0A0A0A"/>
<path d="M375.65 0H376.86C382.05 0 386.26 4.21 386.26 9.4V58.61C386.26 63.8 382.05 68.01 376.86 68.01H375.65C370.46 68.01 366.25 63.8 366.25 58.61V9.4C366.25 4.21 370.46 0 375.65 0Z" fill="#0A0A0A"/>
</g>
<defs>
<clipPath id="clip0_186_727">
<rect width="507.51" height="385.02" fill="white"/>
</clipPath>
</defs>
</svg>
