<?xml version="1.0" encoding="UTF-8"?>
<svg id="_레이어_2" data-name="레이어 2" xmlns="http://www.w3.org/2000/svg" viewBox="0 0 805.6 632.5">
  <defs>
    <style>
      .cls-1, .cls-2, .cls-3, .cls-4, .cls-5 {
        stroke-width: 0px;
      }

      .cls-2 {
        fill: #f58e5f;
      }

      .cls-3 {
        fill: #0a0a0a;
      }

      .cls-4 {
        fill: #efefef;
      }

      .cls-5 {
        fill: #f76d5d;
      }
    </style>
  </defs>
  <g id="_레이어_1-2" data-name="레이어 1">
    <g>
      <g>
        <g>
          <path class="cls-4" d="m0,590.32c0,23.3,18.94,42.18,42.31,42.18l720.98-.04c23.37,0,42.31-18.89,42.31-42.19V144.55l-805.6.05v445.72Z"/>
          <path class="cls-5" d="m763.29,54.2l-720.98.04c-23.37,0-42.31,18.89-42.31,42.19v61.31l805.6-.05v-61.31c0-23.3-18.94-42.18-42.31-42.18Z"/>
        </g>
        <g>
          <path class="cls-3" d="m201.97,111.73h-1.99c-8.55,0-15.48-6.91-15.48-15.44V15.46c0-8.53,6.93-15.44,15.48-15.44h1.99c8.55,0,15.48,6.91,15.48,15.44v80.83c0,8.53-6.93,15.44-15.48,15.44Z"/>
          <path class="cls-3" d="m605.62,111.71h-1.99c-8.55,0-15.48-6.91-15.48-15.44V15.44c0-8.53,6.93-15.44,15.48-15.44h1.99c8.55,0,15.48,6.91,15.48,15.44v80.83c0,8.53-6.93,15.44-15.48,15.44Z"/>
        </g>
      </g>
      <g>
        <path class="cls-1" d="m258.82,220H116.82c-17.95,0-32.5,14.55-32.5,32.5h0c0,17.95,14.55,32.5,32.5,32.5h142c17.95,0,32.5-14.55,32.5-32.5h0c0-17.95-14.55-32.5-32.5-32.5Zm-7,43H123.82c-5.8,0-10.5-4.7-10.5-10.5s4.7-10.5,10.5-10.5h128c5.8,0,10.5,4.7,10.5,10.5s-4.7,10.5-10.5,10.5Z"/>
        <rect class="cls-1" x="83.32" y="292" width="208" height="23"/>
        <rect class="cls-1" x="306.57" y="236" width="127.75" height="22"/>
        <rect class="cls-1" x="522.94" y="223" width="175.2" height="24"/>
        <rect class="cls-1" x="522.94" y="312" width="180.38" height="24"/>
        <rect class="cls-1" x="514.57" y="359" width="197.75" height="22"/>
        <rect class="cls-1" x="376.32" y="291" width="163" height="23" transform="translate(155.32 760.32) rotate(-90)"/>
        <rect class="cls-1" x="410.32" y="291" width="163" height="23" transform="translate(189.32 794.32) rotate(-90)"/>
        <rect class="cls-1" x="174.82" y="275" width="21.5" height="27.5" transform="translate(-103.18 474.32) rotate(-90)"/>
        <rect class="cls-1" x="358.69" y="215" width="21.5" height="27.5" transform="translate(140.69 598.19) rotate(-90)"/>
        <rect class="cls-1" x="598.19" y="333.5" width="24.5" height="27.5" transform="translate(263.19 957.69) rotate(-90)"/>
        <rect class="cls-1" x="299.32" y="541" width="190" height="22"/>
        <polygon class="cls-1" points="300.32 416 300.32 438 420.01 438 378.03 461.5 355.7 474 300.32 505 300.32 530 378.03 486.5 459.32 532 459.32 507 400.36 474 459.32 441 459.32 438 459.32 416 300.32 416"/>
        <rect class="cls-1" x="371.69" y="517.62" width="27.5" height="28.25" transform="translate(-146.31 917.19) rotate(-90)"/>
        <rect class="cls-1" x="494.69" y="260.25" width="84" height="27.5" transform="translate(262.69 810.69) rotate(-90)"/>
        <rect class="cls-1" x="465.82" y="274" width="21.5" height="27.5"/>
        <rect class="cls-1" x="191.82" y="478.5" width="156" height="23" transform="translate(-220.18 759.82) rotate(-90)"/>
        <rect class="cls-1" x="277.82" y="459" width="21.5" height="27.5"/>
        <rect class="cls-1" x="400.82" y="478.5" width="156" height="23" transform="translate(-11.18 968.82) rotate(-90)"/>
        <rect class="cls-1" x="486.82" y="459" width="21.5" height="27.5"/>
        <rect class="cls-1" x="513.32" y="541" width="190" height="22"/>
        <polygon class="cls-1" points="514.32 416 514.32 438 634.01 438 592.03 461.5 569.7 474 514.32 505 514.32 530 592.03 486.5 673.32 532 673.32 507 614.36 474 673.32 441 673.32 438 673.32 416 514.32 416"/>
        <rect class="cls-1" x="585.69" y="517.63" width="27.5" height="28.25" transform="translate(67.69 1131.19) rotate(-90)"/>
        <rect class="cls-1" x="614.82" y="478.5" width="156" height="23" transform="translate(202.82 1182.82) rotate(-90)"/>
        <rect class="cls-1" x="700.82" y="459" width="21.5" height="27.5"/>
        <rect class="cls-1" x="83.32" y="323" width="208" height="23"/>
        <rect class="cls-1" x="83.32" y="361" width="208" height="23"/>
        <polygon class="cls-1" points="291.32 346 83.32 380 83.32 361 291.32 327 291.32 346"/>
        <path class="cls-1" d="m377.46,264h-13.28c-33.61,0-60.86,24.4-60.86,59.43h0c0,35.03,27.25,57.43,60.86,57.43h13.28c33.61,0,60.86-22.4,60.86-57.43h0c0-35.03-27.25-59.43-60.86-59.43Zm34.86,59.43c0,21.87-17.01,33.61-38,33.61h-9c-20.99,0-38-11.73-38-33.61h0c0-21.87,17.01-35.61,38-35.61h9c20.99,0,38,13.73,38,35.6h0Z"/>
        <g>
          <polygon class="cls-2" points="166.33 490.44 185.68 506.16 192.21 515.4 198.83 528.55 198.83 546.41 182.58 554.23 150.46 554.23 131.91 554.23 131.91 528.55 147.67 506.16 166.33 490.44"/>
          <polygon class="cls-5" points="152.73 403.35 108.96 442.76 93.68 500 108.96 536.64 131.91 554.23 140.43 512.27 156.97 498.29 174.08 500 185.68 506.16 192.21 515.4 198.83 528.55 205.86 550.93 218.56 539.35 239.08 515.4 233.95 452.1 218.86 435.87 203.18 456.98 172.37 446.97 160.63 424.6 163.82 399.08 152.73 403.35"/>
          <path class="cls-1" d="m102.34,493.78c0,8.26,1.66,16.08,4.99,23.45,3.34,7.39,8.09,13.86,14.28,19.4-.15-.79-.24-1.51-.24-2.14v-2.14c0-5.08.96-9.84,2.86-14.28,1.9-4.45,4.69-8.5,8.33-12.15l33.75-26.43,33.75,26.43c3.64,3.64,6.43,7.7,8.33,12.15,1.9,4.45,2.86,9.2,2.86,14.28v2.14c0,.63-.09,1.35-.24,2.14,6.19-5.56,10.95-12.03,14.28-19.42,3.34-7.39,4.99-15.21,4.99-23.45s-1.47-15.45-4.41-22.49c-2.94-7.06-7.18-13.38-12.74-18.94-3.18,2.07-6.5,3.61-10.01,4.64-3.51,1.03-7.06,1.56-10.71,1.56-9.84,0-25.48-3.79-32.06-10.95-6.04-6.57-8.36-13.38-10.97-28.21-6.19,5.23-17.07,12.64-25.19,21.66-4.93,5.48-8.78,11.36-12.03,17.14-3.25,5.78-5.71,11.7-7.39,17.74-1.68,6.04-2.5,11.99-2.5,17.86l.05.02Zm63.99,12.38l-20.41,13.34c-1.74,1.74-3.1,3.73-4.05,5.95-.96,2.22-1.44,4.52-1.44,6.91,0,5.08,1.86,9.44,5.59,13.1,3.73,3.64,15.05,5.47,20.3,5.47s16.56-1.83,20.3-5.47c3.75-3.64,5.59-8.02,5.59-13.1,0-2.53-.48-4.88-1.44-7.03-.96-2.16-2.31-4.09-4.05-5.83l-20.41-13.33v-.02Zm8.99-71.16c4.33,3.09,11.75,4.48,17.13,4.48,2.86,0,5.51-.6,7.97-1.78,2.46-1.2,4.64-2.98,6.55-5.35l4.29-5.23c11.75,6.67,21.04,15.96,27.87,27.87,6.83,11.91,10.25,24.84,10.25,38.81,0,21.28-7.39,39.29-22.15,54.06-14.76,14.76-39.62,22.15-60.9,22.15s-46.14-7.37-60.9-22.14c-14.76-14.76-22.15-32.78-22.15-54.06s6.86-39.93,20.6-58.35c13.74-18.42,37.1-33.9,60.44-46.44l.02-.02s-.01,16,1.99,29c1.23,7.97,3.39,12.99,9,17Z"/>
        </g>
      </g>
    </g>
  </g>
</svg>