<svg width="303" height="44" viewBox="0 0 303 44" fill="none" xmlns="http://www.w3.org/2000/svg">
<path d="M41.3404 4.91895H7.89022C3.66184 4.91895 0.234375 8.36252 0.234375 12.6108C0.234375 16.859 3.66184 20.3026 7.89022 20.3026H41.3404C45.5688 20.3026 48.9962 16.859 48.9962 12.6108C48.9962 8.36252 45.5688 4.91895 41.3404 4.91895ZM39.6914 15.0958H9.53917C8.1729 15.0958 7.06575 13.9835 7.06575 12.6108C7.06575 11.2381 8.1729 10.1257 9.53917 10.1257H39.6914C41.0577 10.1257 42.1649 11.2381 42.1649 12.6108C42.1649 13.9835 41.0577 15.0958 39.6914 15.0958Z" fill="black"/>
<path d="M48.9974 21.96H0V27.4034H48.9974V21.96Z" fill="black"/>
<path d="M82.6832 8.70703H52.5898V13.9138H82.6832V8.70703Z" fill="black"/>
<path d="M144.829 5.62891H103.559V11.309H144.829V5.62891Z" fill="black"/>
<path d="M146.05 26.6934H103.559V32.3735H146.05V26.6934Z" fill="black"/>
<path d="M148.173 37.8164H101.59V43.0232H148.173V37.8164Z" fill="black"/>
<path d="M85.5078 5.15686V43.7344H90.9258V5.15686H85.5078Z" fill="black"/>
<path d="M93.5195 5.15686V43.7344H98.9375V5.15686H93.5195Z" fill="black"/>
<path d="M20.8477 18.6469V23.7354H27.3257V18.6469H20.8477Z" fill="black"/>
<path d="M64.1562 4.44671V9.53516H70.6343V4.44671H64.1562Z" fill="black"/>
<path d="M120.934 32.1381V37.9365H127.412V32.1381H120.934Z" fill="black"/>
<path d="M103.559 7.75921V27.6396H110.037V7.75921H103.559Z" fill="black"/>
<path d="M95.1662 17.7002H90.1016V24.2087H95.1662V17.7002Z" fill="black"/>
<path d="M48.9974 29.2979H0V34.7413H48.9974V29.2979Z" fill="black"/>
<path d="M48.9974 38.291H0V43.7345H48.9974V38.291Z" fill="black"/>
<path d="M48.9974 34.7399L0 42.7868V38.29L48.9974 30.2432V34.7399Z" fill="black"/>
<path d="M69.2929 15.333H66.1646C58.2473 15.333 51.8281 21.1078 51.8281 29.3984C51.8281 37.689 58.2473 42.9905 66.1646 42.9905H69.2929C77.2102 42.9905 83.6293 37.689 83.6293 29.3984C83.6293 21.1078 77.2102 15.333 69.2929 15.333ZM77.5047 29.3984C77.5047 34.5744 73.4977 37.353 68.5532 37.353H66.4331C61.4886 37.353 57.4817 34.5768 57.4817 29.3984C57.4817 24.2224 61.4886 20.9705 66.4331 20.9705H68.5532C73.4977 20.9705 77.5047 24.22 77.5047 29.3961V29.3984Z" fill="black"/>
<path d="M248.113 35.9746H203.355V41.1814H248.113V35.9746Z" fill="black"/>
<path d="M203.59 6.3916V11.5984H231.785L221.896 17.1602L216.635 20.1186L203.59 27.4554V33.3722L221.896 23.077L241.045 33.8455V27.9287L227.156 20.1186L241.045 12.3084V11.5984V6.3916H203.59Z" fill="black"/>
<path d="M220.312 30.5316V37.04H226.967V30.5316H220.312Z" fill="black"/>
<path d="M193.691 5.44344V42.3643H199.109V5.44344H193.691Z" fill="black"/>
<path d="M203.354 16.5674H198.289V23.0759H203.354V16.5674Z" fill="black"/>
<path d="M242.93 5.44344V42.3643H248.348V5.44344H242.93Z" fill="black"/>
<path d="M252.584 16.5674H247.52V23.0759H252.584V16.5674Z" fill="black"/>
<path d="M298.519 35.9746H253.762V41.1814H298.519V35.9746Z" fill="black"/>
<path d="M253.996 6.3916V11.5984H282.191L272.302 17.1602L267.042 20.1186L253.996 27.4554V33.3722L272.302 23.077L291.451 33.8455V27.9287L277.562 20.1186L291.451 12.3084V11.5984V6.3916H253.996Z" fill="black"/>
<path d="M270.727 30.5316V37.04H277.381V30.5316H270.727Z" fill="black"/>
<path d="M293.34 5.44344V42.3643H298.758V5.44344H293.34Z" fill="black"/>
<path d="M302.998 16.5674H297.934V23.0759H302.998V16.5674Z" fill="black"/>
<path d="M172.022 24.0088L176.58 27.7293L178.119 29.9161L179.678 33.0283V37.2553L175.85 39.1061H168.284H163.914V33.0283L167.627 27.7293L172.022 24.0088Z" fill="#F58E5F"/>
<path d="M168.82 3.39731L158.51 12.7246L154.91 26.2716L158.51 34.9433L163.916 39.1064L165.923 29.1756L169.819 25.8669L173.85 26.2716L176.582 27.7295L178.12 29.9164L179.68 33.0286L181.336 38.3253L184.327 35.5847L189.161 29.9164L187.953 14.9351L184.398 11.0939L180.704 16.09L173.447 13.7209L170.681 8.42659L171.433 2.38672L168.82 3.39731Z" fill="#F76D5D"/>
<path d="M156.49 24.7985C156.49 26.7534 156.881 28.6042 157.665 30.3484C158.452 32.0974 159.571 33.6287 161.029 34.9399C160.994 34.7529 160.973 34.5825 160.973 34.4334V33.9269C160.973 32.7246 161.199 31.5981 161.646 30.5472C162.094 29.494 162.751 28.5355 163.609 27.6717L171.559 21.4164L179.509 27.6717C180.367 28.5332 181.024 29.494 181.471 30.5472C181.919 31.6004 182.145 32.7246 182.145 33.9269V34.4334C182.145 34.5825 182.124 34.7529 182.089 34.9399C183.547 33.624 184.668 32.0927 185.453 30.3437C186.239 28.5947 186.628 26.7439 186.628 24.7937C186.628 22.8436 186.282 21.1372 185.589 19.471C184.897 17.8001 183.898 16.3043 182.588 14.9884C181.839 15.4783 181.057 15.8428 180.23 16.0866C179.403 16.3304 178.567 16.4558 177.707 16.4558C175.389 16.4558 171.705 15.5588 170.155 13.8642C168.732 12.3093 168.186 10.6976 167.571 7.18772C166.113 8.42552 163.55 10.1793 161.637 12.314C160.476 13.611 159.569 15.0026 158.803 16.3706C158.038 17.7386 157.458 19.1397 157.062 20.5691C156.667 21.9986 156.473 23.4068 156.473 24.7961L156.485 24.8008L156.49 24.7985ZM171.564 27.7285L166.756 30.8857C166.346 31.2975 166.026 31.7685 165.802 32.2939C165.576 32.8193 165.463 33.3636 165.463 33.9293C165.463 35.1316 165.901 36.1635 166.779 37.0297C167.658 37.8912 170.325 38.3243 171.561 38.3243C172.798 38.3243 175.462 37.8912 176.343 37.0297C177.227 36.1682 177.66 35.1316 177.66 33.9293C177.66 33.3305 177.547 32.7743 177.321 32.2655C177.095 31.7543 176.777 31.2975 176.367 30.8857L171.559 27.7308V27.7261L171.564 27.7285ZM173.681 10.8869C174.701 11.6182 176.449 11.9472 177.717 11.9472C178.39 11.9472 179.015 11.8052 179.594 11.5259C180.174 11.2419 180.687 10.8206 181.137 10.2597L182.148 9.02193C184.915 10.6005 187.104 12.7992 188.713 15.618C190.322 18.4367 191.127 21.4969 191.127 24.8032C191.127 29.8396 189.386 34.102 185.91 37.5977C182.433 41.091 176.576 42.84 171.564 42.84C166.551 42.84 160.695 41.0957 157.218 37.6001C153.741 34.1068 152 29.8419 152 24.8056C152 19.7692 153.616 15.3553 156.853 10.9958C160.089 6.63628 165.592 2.9726 171.09 0.00473084L171.095 0C171.095 0 171.093 3.78675 171.564 6.86348C171.853 8.74976 172.362 9.93785 173.684 10.8869H173.681Z" fill="black"/>
</svg>
